<svg width="160" height="160" viewBox="0 0 160 160" fill="none" xmlns="http://www.w3.org/2000/svg">
    <defs>
        <linearGradient id="paint0_linear_2_59" x1="80" y1="0" x2="80" y2="160"
            gradientUnits="userSpaceOnUse">
            <stop stop-color="#00D368" />
            <stop offset="1" stop-color="#4285F4" />
        </linearGradient>
    </defs>
    <path
        d="M17.9984 0C8.05817 0 0 8.05817 0 17.9984V125.989C0 135.929 8.05817 143.987 17.9984 143.987H65.3152L68.1613 132.603C68.2127 132.397 68.2663 132.193 68.322 131.988H17.9984C14.685 131.988 11.9989 129.302 11.9989 125.989V17.9984C11.9989 14.685 14.685 11.9989 17.9984 11.9989H125.989C129.302 11.9989 131.988 14.685 131.988 17.9984V65.8534C135.819 64.3298 139.936 63.7427 143.987 64.0921V17.9984C143.987 8.05817 135.929 0 125.989 0H17.9984ZM98.8316 95.9915H65.9942C62.6801 95.9915 59.9947 98.6777 59.9947 101.991C59.9947 105.304 62.6801 107.99 65.9942 107.99H86.8326L98.8316 95.9915ZM45.9959 41.9963C45.9959 46.4142 42.4145 49.9956 37.9967 49.9956C33.5788 49.9956 29.9974 46.4142 29.9974 41.9963C29.9974 37.5784 33.5788 33.997 37.9967 33.997C42.4145 33.997 45.9959 37.5784 45.9959 41.9963ZM65.9942 35.9968C62.6809 35.9968 59.9947 38.6829 59.9947 41.9963C59.9947 45.3097 62.6809 47.9958 65.9942 47.9958H109.99C113.304 47.9958 115.99 45.3097 115.99 41.9963C115.99 38.6829 113.304 35.9968 109.99 35.9968H65.9942ZM65.9942 65.9942C62.6801 65.9942 59.9947 68.6804 59.9947 71.9937C59.9947 75.307 62.6801 77.9931 65.9942 77.9931H109.989C113.303 77.9931 115.988 75.307 115.988 71.9937C115.988 68.6804 113.303 65.9942 109.989 65.9942H65.9942ZM37.9967 79.993C42.4145 79.993 45.9959 76.4117 45.9959 71.9937C45.9959 67.5757 42.4145 63.9944 37.9967 63.9944C33.5788 63.9944 29.9974 67.5757 29.9974 71.9937C29.9974 76.4117 33.5788 79.993 37.9967 79.993ZM45.9959 101.991C45.9959 106.409 42.4145 109.99 37.9967 109.99C33.5788 109.99 29.9974 106.409 29.9974 101.991C29.9974 97.573 33.5788 93.9917 37.9967 93.9917C42.4145 93.9917 45.9959 97.573 45.9959 101.991ZM128.788 77.3489L81.5723 124.564C78.8194 127.317 76.8665 130.766 75.9223 134.543L72.2612 149.187C70.6691 155.556 76.4377 161.325 82.8062 159.732L97.4506 156.071C101.227 155.127 104.677 153.174 107.43 150.421L154.645 103.206C161.785 96.0658 161.785 84.4892 154.645 77.3489C147.504 70.2086 135.928 70.2086 128.788 77.3489Z"
        fill="url(#paint0_linear_2_59)" />
</svg>
